HIERARCHY
ROOT Hips
{
 OFFSET 0.000000 0.000000 0.000000
 CHANNELS 6 Xposition Yposition Zposition Yrotation Xrotation Zrotation
 JOINT Chest
 {
  OFFSET 0.000000 9.585900 0.002600
  CHANNELS 3 Yrotation Xrotation Zrotation
  JOINT Chest2
  {
   OFFSET 0.000000 9.601200 -0.005300
   CHANNELS 3 Yrotation Xrotation Zrotation
   JOINT Chest3
   {
    OFFSET 0.000000 9.561800 0.000000
    CHANNELS 3 Yrotation Xrotation Zrotation
    JOINT Chest4
    {
     OFFSET 0.000000 9.552100 0.000000
     CHANNELS 3 Yrotation Xrotation Zrotation
     JOINT Neck
     {
      OFFSET 0.000000 14.453000 0.000000
      CHANNELS 3 Yrotation Xrotation Zrotation
      JOINT Head
      {
       OFFSET 0.000000 8.936500 -0.011300
       CHANNELS 3 Yrotation Xrotation Zrotation
       End Site
       {
        OFFSET 0.000000 17.073600 -0.006000
       }
      }
     }
     JOINT RightCollar
     {
      OFFSET -2.921100 9.558500 0.000000
      CHANNELS 3 Yrotation Xrotation Zrotation
      JOINT RightShoulder
      {
       OFFSET -13.519700 0.000000 0.000000
       CHANNELS 3 Yrotation Xrotation Zrotation
       JOINT RightElbow
       {
        OFFSET 0.000000 -29.696600 0.000000
        CHANNELS 3 Yrotation Xrotation Zrotation
        JOINT RightWrist
        {
         OFFSET 0.000000 -24.004700 0.000000
         CHANNELS 3 Yrotation Xrotation Zrotation
         End Site
         {
          OFFSET 0.000000 -17.728500 0.000000
         }
        }
       }
      }
     }
     JOINT LeftCollar
     {
      OFFSET 2.921100 9.558500 0.000000
      CHANNELS 3 Yrotation Xrotation Zrotation
      JOINT LeftShoulder
      {
       OFFSET 13.519700 0.000000 0.000000
       CHANNELS 3 Yrotation Xrotation Zrotation
       JOINT LeftElbow
       {
        OFFSET 0.000000 -29.696600 0.000000
        CHANNELS 3 Yrotation Xrotation Zrotation
        JOINT LeftWrist
        {
         OFFSET 0.000000 -24.004700 0.000000
         CHANNELS 3 Yrotation Xrotation Zrotation
         End Site
         {
          OFFSET 0.000000 -17.728500 0.000000
         }
        }
       }
      }
     }
    }
   }
  }
 }
 JOINT RightHip
 {
  OFFSET -7.771700 -0.012900 -0.001300
  CHANNELS 3 Yrotation Xrotation Zrotation
  JOINT RightKnee
  {
   OFFSET 0.000000 -40.869800 0.001200
   CHANNELS 3 Yrotation Xrotation Zrotation
   JOINT RightAnkle
   {
    OFFSET 0.000000 -39.717900 0.002100
    CHANNELS 3 Yrotation Xrotation Zrotation
    JOINT RightToe
    {
     OFFSET 0.000000 -4.965400 11.033500
     CHANNELS 3 Yrotation Xrotation Zrotation
     End Site
     {
      OFFSET 0.000000 -1.423100 5.872300
     }
    }
   }
  }
 }
 JOINT LeftHip
 {
  OFFSET 7.771700 -0.012900 -0.001300
  CHANNELS 3 Yrotation Xrotation Zrotation
  JOINT LeftKnee
  {
   OFFSET 0.000000 -40.869800 0.001200
   CHANNELS 3 Yrotation Xrotation Zrotation
   JOINT LeftAnkle
   {
    OFFSET 0.000000 -39.717900 0.002100
    CHANNELS 3 Yrotation Xrotation Zrotation
    JOINT LeftToe
    {
     OFFSET 0.000000 -4.965400 11.033500
     CHANNELS 3 Yrotation Xrotation Zrotation
     End Site
     {
      OFFSET 0.000000 -1.423100 5.872300
     }
    }
   }
  }
 }
}
MOTION
Frames: 12
Frame Time: 0.008333
-231.953584 57.661492 23.064640 173.676999 -50.168259 -2.567677 4.640976 22.834271 4.115558 2.392842 13.086583 2.088791 3.088178 16.340309 2.716203 2.393619 13.097272 2.091974 -0.746360 17.361158 2.979722 -2.382367 -3.468755 5.752488 2.064376 1.734896 0.888956 3.971207 -18.493565 -11.731334 -28.269045 -50.211549 73.972821 12.373357 -9.573873 -37.729147 -8.880424 -0.227935 0.511704 -6.052451 -26.281440 7.693532 114.161511 -52.796734 -150.383519 -8.357297 -10.278044 24.172407 6.482204 -21.976910 -0.888439 -40.851854 73.115004 -44.390319 4.060814 -13.548428 12.183049 0.011513 -0.016259 0.027378 -9.123631 -19.293159 9.200137 54.119748 81.640786 56.028664 0.069119 -18.169902 -22.599562 -0.001485 0.010054 0.001581
-231.954521 57.661720 23.062944 173.672609 -50.164050 -2.565911 4.645842 22.836594 4.117927 2.391083 13.083368 2.089657 3.088468 16.345797 2.718309 2.394004 13.095471 2.086728 -0.743950 17.367174 2.978830 -2.377998 -3.461853 5.750480 2.075338 1.722379 0.881502 3.958780 -18.488217 -11.720720 -28.251310 -50.205327 73.957482 12.376301 -9.584941 -37.732808 -8.880173 -0.236802 0.515935 -6.029276 -26.280254 7.683118 114.204287 -52.802241 -150.405816 -8.383792 -10.225792 24.176352 6.489235 -21.981132 -0.884737 -40.871898 73.114165 -44.408751 4.068911 -13.557827 12.164386 0.002572 -0.012321 0.044546 -9.115236 -19.297598 9.203902 54.096019 81.644113 56.012032 0.066001 -18.170124 -22.600924 0.001740 0.009836 0.002008
-231.955783 57.661694 23.061317 173.674530 -50.158004 -2.566716 4.646965 22.839509 4.118587 2.392911 13.089355 2.088541 3.088663 16.346438 2.716942 2.392042 13.081606 2.087759 -0.741119 17.377193 2.979038 -2.373448 -3.453475 5.747184 2.087774 1.713441 0.869851 3.953856 -18.475110 -11.709448 -28.256567 -50.202098 73.951073 12.377695 -9.583370 -37.729720 -8.876460 -0.245380 0.526382 -5.997552 -26.276205 7.661560 114.214745 -52.808669 -150.415570 -8.384998 -10.201865 24.165385 6.490922 -21.986945 -0.884112 -40.888591 73.113943 -44.425265 4.071902 -13.563034 12.158002 0.005892 -0.013557 0.044590 -9.109732 -19.303786 9.198393 54.089642 81.641974 56.015093 0.066447 -18.169644 -22.606578 0.004948 0.009738 0.004556
-231.957538 57.660638 23.060388 173.678985 -50.144052 -2.566926 4.642695 22.829578 4.115343 2.392787 13.092527 2.089612 3.087679 16.343267 2.715523 2.393231 13.086889 2.085767 -0.739394 17.379541 2.982823 -2.373750 -3.459660 5.744603 2.100126 1.696451 0.860718 3.952804 -18.453506 -11.701746 -28.270931 -50.203835 73.949038 12.382287 -9.584371 -37.725973 -8.875279 -0.268557 0.542511 -5.931959 -26.266124 7.630273 114.189062 -52.807374 -150.418801 -8.390585 -10.181276 24.156823 6.489995 -22.000445 -0.888560 -40.891600 73.116187 -44.428933 4.072720 -13.569023 12.150316 0.007624 -0.014683 0.038913 -9.113841 -19.317343 9.193515 54.089983 81.639528 56.017338 0.072975 -18.170150 -22.612123 0.003252 0.013261 0.005312
-231.958856 57.660718 23.058441 173.680862 -50.139235 -2.567314 4.641748 22.828389 4.115584 2.392787 13.095695 2.089620 3.085975 16.339547 2.716016 2.391662 13.089174 2.088751 -0.737710 17.385542 2.979965 -2.366342 -3.451191 5.740854 2.117867 1.681883 0.841827 3.936342 -18.439276 -11.686619 -28.267271 -50.202335 73.942095 12.376329 -9.589010 -37.735350 -8.873614 -0.276702 0.539515 -5.918001 -26.265689 7.625814 114.196320 -52.813328 -150.420869 -8.388776 -10.172184 24.150266 6.491413 -22.004714 -0.888272 -40.889262 73.120736 -44.429555 4.067032 -13.575826 12.146773 0.006007 -0.011727 0.044283 -9.117239 -19.322166 9.189226 54.109243 81.636549 56.038425 0.076440 -18.169746 -22.616794 0.003882 0.013610 0.005242
-231.960210 57.660989 23.056160 173.683635 -50.136247 -2.568398 4.644719 22.838882 4.117285 2.390620 13.089153 2.089177 3.083329 16.338742 2.716551 2.390791 13.089167 2.088944 -0.736018 17.388035 2.979113 -2.362712 -3.439175 5.743434 2.124363 1.674209 0.830866 3.929572 -18.436589 -11.677376 -28.256837 -50.200650 73.932877 12.367140 -9.589398 -37.738360 -8.871240 -0.292050 0.546519 -5.903586 -26.259749 7.614802 114.190010 -52.812855 -150.418797 -8.399645 -10.160183 24.151222 6.496320 -22.004148 -0.887617 -40.906059 73.117055 -44.446302 4.062965 -13.583966 12.147531 0.011686 -0.009269 0.042288 -9.119984 -19.325637 9.186931 54.114066 81.640911 56.042118 0.083316 -18.171273 -22.616913 0.003649 0.013586 0.005099
-231.961641 57.659870 23.054858 173.688906 -50.122645 -2.572130 4.642302 22.830898 4.117195 2.392093 13.091557 2.090443 3.082107 16.338219 2.715167 2.396234 13.097580 2.092761 -0.742759 17.374757 2.977261 -2.360892 -3.406042 5.755080 2.122099 1.659190 0.818900 3.920690 -18.433352 -11.662612 -28.241695 -50.205409 73.919200 12.363546 -9.593803 -37.738439 -8.877861 -0.311218 0.556416 -5.884123 -26.258439 7.601091 114.199765 -52.819267 -150.424208 -8.421769 -10.107250 24.151086 6.494665 -22.017108 -0.889267 -40.934864 73.112634 -44.476894 4.066567 -13.590601 12.148840 0.003712 -0.011887 0.030575 -9.125822 -19.340302 9.186690 54.117317 81.647085 56.050209 0.087857 -18.173281 -22.621846 0.005640 0.012490 0.005114
-231.963396 57.660001 23.052235 173.691339 -50.119390 -2.571416 4.641684 22.836357 4.116170 2.393815 13.091879 2.091548 3.081830 16.336809 2.715983 2.396296 13.094761 2.092096 -0.742467 17.381088 2.981366 -2.364420 -3.406577 5.757732 2.122321 1.656682 0.809198 3.919328 -18.422512 -11.643559 -28.231187 -50.219145 73.902677 12.362049 -9.586175 -37.738122 -8.879271 -0.319959 0.566317 -5.876153 -26.255885 7.585117 114.233373 -52.848008 -150.431320 -8.413276 -10.070840 24.134937 6.495725 -22.019530 -0.893118 -40.963392 73.117485 -44.508737 4.066466 -13.602731 12.152951 0.002022 -0.012904 0.025632 -9.129380 -19.344608 9.181777 54.124441 81.650384 56.060572 0.089532 -18.173682 -22.622918 0.003575 0.011735 0.002551
-231.965085 57.659910 23.049620 173.690391 -50.114810 -2.568886 4.642268 22.843090 4.114462 2.395492 13.087555 2.092537 3.087949 16.340143 2.718974 2.393344 13.089785 2.091376 -0.740823 17.387107 2.985044 -2.370486 -3.415517 5.757705 2.122369 1.652066 0.802188 3.915526 -18.417701 -11.630465 -28.223550 -50.226251 73.891812 12.359394 -9.576300 -37.736976 -8.882950 -0.329122 0.585423 -5.869154 -26.251347 7.569508 114.246197 -52.859261 -150.429736 -8.407184 -10.060971 24.126551 6.501258 -22.023934 -0.895853 -40.974850 73.121390 -44.520267 4.067840 -13.611100 12.151391 -0.002044 -0.012612 0.025359 -9.129512 -19.349296 9.176200 54.125788 81.651433 56.062757 0.092042 -18.175961 -22.623143 0.006201 0.012108 0.002522
-231.965807 57.659292 23.047463 173.684918 -50.106168 -2.569096 4.645391 22.843704 4.116176 2.398283 13.080122 2.094269 3.091366 16.347023 2.721162 2.395026 13.089970 2.091876 -0.741532 17.388797 2.987956 -2.372934 -3.412124 5.763140 2.122762 1.642476 0.797884 3.912329 -18.410482 -11.619885 -28.213623 -50.235774 73.879293 12.356016 -9.562162 -37.741277 -8.889485 -0.339004 0.599943 -5.861325 -26.250412 7.562513 114.252233 -52.870308 -150.423619 -8.401855 -10.054574 24.118269 6.509696 -22.032570 -0.894466 -40.978504 73.124158 -44.519606 4.074875 -13.619820 12.144993 -0.012091 -0.009209 0.029623 -9.131451 -19.357563 9.177022 54.183166 81.650647 56.126856 0.093332 -18.182211 -22.630432 0.007901 0.012053 0.001390
-231.965824 57.658830 23.045231 173.679354 -50.098183 -2.573280 4.653451 22.845731 4.125860 2.395824 13.079436 2.091587 3.094359 16.347988 2.723579 2.397273 13.090817 2.093603 -0.743670 17.389786 2.989647 -2.382832 -3.398742 5.774956 2.122276 1.630445 0.793898 3.915975 -18.400290 -11.611082 -28.199833 -50.247344 73.854701 12.353597 -9.557025 -37.744845 -8.893974 -0.351152 0.609318 -5.858110 -26.240392 7.569018 114.269049 -52.873120 -150.427042 -8.415553 -9.981515 24.111720 6.511824 -22.041030 -0.885792 -40.973263 73.128620 -44.513623 4.073112 -13.625409 12.140051 -0.000898 -0.010334 0.029401 -9.131946 -19.365109 9.183780 54.200669 81.652223 56.151020 0.092840 -18.185472 -22.632463 0.006368 0.012350 -0.001223
-231.966723 57.657879 23.043232 173.675115 -50.086093 -2.573099 4.662442 22.844016 4.134247 2.399150 13.089512 2.096032 3.085637 16.337065 2.718320 2.398564 13.090106 2.094582 -0.745848 17.390441 2.991282 -2.390849 -3.398062 5.777805 2.127276 1.622817 0.785962 3.917389 -18.389611 -11.600536 -28.178393 -50.262246 73.824239 12.344671 -9.558442 -37.743120 -8.898136 -0.360730 0.616719 -5.849511 -26.237712 7.561170 114.277815 -52.886006 -150.431309 -8.423812 -9.946817 24.111999 6.513717 -22.053579 -0.883064 -40.962185 73.136062 -44.506895 4.064651 -13.630796 12.141965 0.002319 -0.011608 0.025601 -9.131501 -19.377418 9.186910 54.221140 81.652566 56.175483 0.095802 -18.188826 -22.635986 0.008639 0.013800 -0.000725
